<svg data-v-fde0c5aa="" xmlns="http://www.w3.org/2000/svg" viewBox="0 0 300 300" class="iconLeft"><!----><defs data-v-fde0c5aa=""><!----></defs><rect data-v-fde0c5aa="" fill="transparent" x="0" y="0" width="300px" height="300px" class="logo-background-square"></rect><defs data-v-fde0c5aa=""><!----></defs><g data-v-fde0c5aa="" id="76655d21-b1ea-48d5-8563-91ebe3118655" fill="#000000" transform="matrix(2.0114059448242188,0,0,2.0114059448242188,77.58560653925055,139.09818027554326)"><path d="M5.57 10.36C6.93 10.36 8.15 9.80 8.99 8.90L8.33 8.32C7.63 9.04 6.65 9.49 5.57 9.49C3.37 9.49 1.65 7.66 1.65 5.42C1.65 3.18 3.37 1.34 5.57 1.34C6.65 1.34 7.64 1.79 8.33 2.52L8.99 1.93C8.15 1.04 6.93 0.48 5.57 0.48C2.87 0.48 0.73 2.69 0.73 5.42C0.73 8.15 2.87 10.36 5.57 10.36ZM13.57 3.54C12.54 3.54 11.84 4.17 11.52 5.28L11.52 3.68L10.61 3.68L10.61 10.22L11.52 10.22L11.52 7.76C11.52 6.15 12.00 4.41 13.55 4.41C13.79 4.41 14.10 4.45 14.43 4.59L14.60 3.74C14.35 3.61 13.93 3.54 13.57 3.54ZM16.30 1.90C16.69 1.90 17.00 1.64 17.00 1.27C17.00 0.90 16.69 0.63 16.30 0.63C15.93 0.63 15.61 0.90 15.61 1.27C15.61 1.64 15.93 1.90 16.30 1.90ZM15.85 10.22L16.74 10.22L16.74 3.68L15.85 3.68ZM20.83 10.36C22.19 10.36 23.24 9.62 23.24 8.46C23.24 7.70 22.85 6.93 21.57 6.62L20.61 6.38C20.13 6.27 19.60 6.01 19.60 5.39C19.60 4.77 20.12 4.34 20.87 4.34C21.52 4.34 22.09 4.73 22.13 5.32L23.00 5.32C22.96 4.14 21.95 3.54 20.86 3.54C19.61 3.54 18.70 4.31 18.70 5.38C18.70 6.47 19.45 6.94 20.37 7.17L21.31 7.39C21.98 7.56 22.34 7.91 22.34 8.44C22.34 9.10 21.77 9.56 20.83 9.56C19.88 9.56 19.38 9.00 19.28 8.46L18.45 8.46C18.56 9.70 19.70 10.36 20.83 10.36ZM27.82 3.68L26.32 3.68L26.32 1.08L25.44 1.08L25.44 3.68L24.25 3.68L24.25 4.45L25.44 4.45L25.44 10.22L26.32 10.22L26.32 4.45L27.82 4.45ZM29.65 1.90C30.04 1.90 30.35 1.64 30.35 1.27C30.35 0.90 30.04 0.63 29.65 0.63C29.29 0.63 28.97 0.90 28.97 1.27C28.97 1.64 29.29 1.90 29.65 1.90ZM29.20 10.22L30.10 10.22L30.10 3.68L29.20 3.68ZM37.81 3.68L37.81 4.94C37.32 4.06 36.32 3.54 35.21 3.54C33.38 3.54 31.89 4.96 31.89 6.94C31.89 8.93 33.39 10.36 35.21 10.36C36.30 10.36 37.32 9.84 37.81 8.95L37.81 10.22L38.71 10.22L38.71 3.68ZM35.28 9.51C33.91 9.51 32.79 8.39 32.79 6.93C32.79 5.49 33.91 4.40 35.28 4.40C36.58 4.40 37.81 5.39 37.81 6.97C37.81 8.48 36.64 9.51 35.28 9.51ZM44.11 3.54C43.30 3.54 42.24 3.92 41.85 4.86L41.85 3.68L40.95 3.68L40.95 10.22L41.85 10.22L41.85 6.59C41.87 5.01 42.98 4.42 44.03 4.42C45.08 4.42 45.88 5.19 45.88 6.45L45.88 10.22L46.77 10.22L46.77 6.41C46.77 4.61 45.70 3.54 44.11 3.54ZM58.35 0.57L51.28 0.57L51.28 1.44L54.35 1.44L54.35 10.22L55.27 10.22L55.27 1.44L58.35 1.44ZM61.46 10.36C63.32 10.36 64.89 9.00 64.89 6.93C64.89 4.86 63.32 3.54 61.46 3.54C59.60 3.54 58.04 4.86 58.04 6.93C58.04 9.00 59.60 10.36 61.46 10.36ZM61.46 9.51C60.07 9.51 58.94 8.48 58.94 6.93C58.94 5.39 60.07 4.40 61.46 4.40C62.83 4.40 63.99 5.39 63.99 6.93C63.99 8.48 62.83 9.51 61.46 9.51ZM74.51 3.54C73.71 3.54 72.58 3.81 72.10 5.11C71.74 4.10 70.87 3.54 69.80 3.54C68.84 3.54 67.90 3.99 67.56 4.86L67.56 3.68L66.67 3.68L66.67 10.22L67.56 10.22L67.56 6.59C67.59 5.03 68.60 4.41 69.65 4.41C70.69 4.41 71.44 5.18 71.44 6.45L71.44 10.22L72.32 10.22L72.32 6.83L72.34 6.89C72.24 5.29 73.14 4.40 74.37 4.41C75.45 4.41 76.20 5.19 76.20 6.45L76.20 10.22L77.10 10.22L77.10 6.41C77.10 4.61 76.09 3.54 74.51 3.54ZM84.73 3.68L84.73 4.94C84.24 4.06 83.23 3.54 82.12 3.54C80.29 3.54 78.81 4.96 78.81 6.94C78.81 8.93 80.30 10.36 82.12 10.36C83.22 10.36 84.24 9.84 84.73 8.95L84.73 10.22L85.62 10.22L85.62 3.68ZM82.19 9.51C80.82 9.51 79.70 8.39 79.70 6.93C79.70 5.49 80.82 4.40 82.19 4.40C83.50 4.40 84.73 5.39 84.73 6.97C84.73 8.48 83.55 9.51 82.19 9.51ZM90.69 3.68L89.19 3.68L89.19 1.08L88.31 1.08L88.31 3.68L87.12 3.68L87.12 4.45L88.31 4.45L88.31 10.22L89.19 10.22L89.19 4.45L90.69 4.45Z"></path></g><defs data-v-fde0c5aa=""><linearGradient data-v-fde0c5aa="" gradientTransform="rotate(25)" id="2ad624f0-4f53-4bcb-9899-542469b5eccb" x1="0%" y1="0%" x2="100%" y2="0%"><stop data-v-fde0c5aa="" offset="0%" stop-color="#5106FF" stop-opacity="1"></stop><stop data-v-fde0c5aa="" offset="100%" stop-color="#61CBF2" stop-opacity="1"></stop></linearGradient></defs><g data-v-fde0c5aa="" id="6e00a9b5-9481-4ab0-8c77-ea6b0c2d6502" stroke="none" fill="url(#2ad624f0-4f53-4bcb-9899-542469b5eccb)" transform="matrix(0.3394339382648468,0,0,0.3394339382648468,36.055099714498304,133.02817019843863)"><path d="M87.065 27.084L51.315 6.443a2.627 2.627 0 0 0-2.629 0l-35.75 20.641a2.628 2.628 0 0 0-1.314 2.276v41.28c0 .939.501 1.807 1.314 2.276l35.75 20.641a2.622 2.622 0 0 0 2.629 0l35.75-20.641a2.628 2.628 0 0 0 1.314-2.276V29.36c0-.939-.501-1.807-1.314-2.276zM62.442 57.886H36.636l13.294-23.46 12.512 23.46zm-30.186-2.934L18.799 31.6h26.69L32.256 54.952zm29.866 8.192L49.93 85.623 36.976 63.144h25.146zm4.58-8.444l-12.32-23.1h24.849L66.702 54.7zM52.629 26.342v-13.07l22.637 13.07H52.629zm-5.258 0H24.734l22.637-13.07v13.07zM16.879 38.798l11.894 20.639-11.894 6.996V38.798zm14.519 25.195l11.67 20.251-23.264-13.432 11.594-6.819zm36.477-.429l12.321 7.248-23.661 13.661 11.34-20.909zm2.509-4.625l12.737-23.485v30.977l-12.737-7.492z"></path></g><!----></svg>